<svg width="252" height="128" viewBox="0 0 252 128" fill="none" xmlns="http://www.w3.org/2000/svg">
<path d="M126.69 108.543C156.895 108.543 181.381 84.2448 181.381 54.2714C181.381 24.298 156.895 -0.000244141 126.69 -0.000244141C96.4856 -0.000244141 71.9998 24.298 71.9998 54.2714C71.9998 84.2448 96.4856 108.543 126.69 108.543Z" fill="#6557FF"/>
<path d="M94.8477 57.1111L125.86 25.6418C126.676 24.8168 127.605 24.2044 128.6 23.7953C130.092 23.1806 131.737 23.0257 133.304 23.3331C134.873 23.6428 136.356 24.4031 137.577 25.6418C138.39 26.4692 138.993 27.4121 139.397 28.422C140.002 29.9357 140.155 31.6043 139.852 33.1943C139.547 34.7866 138.798 36.2911 137.577 37.5298L115.128 60.3073C114.06 61.3912 114.06 63.1452 115.128 64.2291C116.196 65.313 117.925 65.313 118.993 64.2291L141.442 41.4516C142.779 40.095 143.79 38.5166 144.462 36.8342C145.471 34.3105 145.719 31.5604 145.218 28.9235C144.717 26.2866 143.451 23.756 141.442 21.72C140.105 20.3634 138.549 19.3373 136.891 18.6556C134.404 17.6341 131.694 17.3799 129.095 17.8883C126.496 18.3967 124.002 19.6817 121.995 21.72L90.9802 53.1893C89.912 54.2732 89.912 56.0273 90.9802 57.1111C92.0485 58.195 93.7772 58.195 94.8454 57.1111H94.8477Z" fill="white"/>
<path d="M128.013 55.0852L141.442 41.4594C142.258 40.6343 143.187 40.0219 144.182 39.6128C145.674 38.9981 147.319 38.8433 148.886 39.1506C150.455 39.4603 151.938 40.2206 153.159 41.4594C153.972 42.2867 154.575 43.2296 154.979 44.2395C155.584 45.7533 155.737 47.4218 155.434 49.0118C155.129 50.6041 154.38 52.1086 153.159 53.3473L126.109 80.7931C125.526 81.3847 125.08 82.078 124.786 82.8176C124.344 83.9245 124.235 85.1263 124.456 86.2818C124.674 87.435 125.234 88.5512 126.109 89.4387L131.967 95.3826C133.035 96.4665 134.764 96.4665 135.832 95.3826C136.901 94.2988 136.901 92.5447 135.832 91.4608L129.974 85.5168C129.915 85.4568 129.879 85.3967 129.851 85.3297C129.81 85.2303 129.799 85.1124 129.822 85.0038C129.844 84.8929 129.888 84.805 129.974 84.7149L157.024 57.2691C158.361 55.9125 159.372 54.3341 160.044 52.6517C161.053 50.128 161.301 47.3779 160.8 44.741C160.299 42.1041 159.033 39.5736 157.024 37.5375C155.687 36.181 154.131 35.1549 152.473 34.4731C149.986 33.4493 147.275 33.1974 144.677 33.7058C142.078 34.2143 139.584 35.4992 137.577 37.5375L124.148 51.1634C123.08 52.2472 123.08 54.0013 124.148 55.0852C125.216 56.1691 126.945 56.1691 128.013 55.0852Z" fill="white"/>
<path d="M145.731 44.5139L122.599 67.9847C121.783 68.8098 120.854 69.4222 119.859 69.8312C118.367 70.446 116.722 70.6008 115.155 70.2934C113.586 69.9838 112.103 69.2234 110.882 67.9847C110.069 67.1574 109.466 66.2145 109.062 65.2045C108.457 63.6908 108.304 62.0223 108.607 60.4323C108.912 58.84 109.661 57.3355 110.882 56.0968L133.331 33.3193C134.399 32.2354 134.399 30.4813 133.331 29.3974C132.263 28.3136 130.534 28.3136 129.466 29.3974L107.017 52.175C105.68 53.5315 104.669 55.11 103.997 56.7924C102.988 59.316 102.74 62.0662 103.241 64.7031C103.742 67.3399 105.008 69.8705 107.017 71.9065C108.354 73.2631 109.91 74.2892 111.568 74.971C114.055 75.9947 116.765 76.2467 119.364 75.7382C121.963 75.2298 124.457 73.9449 126.464 71.9065L149.596 48.4357C150.664 47.3518 150.664 45.5978 149.596 44.5139C148.528 43.43 146.799 43.43 145.731 44.5139Z" fill="white"/>
<path fill-rule="evenodd" clip-rule="evenodd" d="M203.229 49.8588L227.366 47.6091C228.068 47.5452 228.6 46.9562 228.6 46.2536L228.6 39.3695C228.6 38.2552 229.857 37.6094 230.758 38.2623L251.403 53.0525C252.163 53.599 252.163 54.7274 251.403 55.2738L230.765 70.0711C229.864 70.7169 228.608 70.0711 228.608 68.964L228.608 62.0799C228.608 61.3773 228.068 60.7882 227.373 60.7243L203.236 58.4746C202.533 58.4107 202.001 57.8217 202.001 57.1191L202.001 51.2286C201.994 50.5118 202.526 49.9227 203.229 49.8588Z" fill="#6557FF"/>
<path fill-rule="evenodd" clip-rule="evenodd" d="M7.27538 109.698L26.6302 95.1024C27.1944 94.6789 27.3378 93.898 26.9687 93.3002L23.3517 87.4429C22.7662 86.4948 23.4957 85.2853 24.6057 85.3673L49.9425 87.1043C50.8757 87.1702 51.4686 88.1304 51.1096 88.9943L41.3244 112.428C40.8968 113.451 39.4887 113.562 38.907 112.62L35.29 106.762C34.9209 106.164 34.1525 105.947 33.5271 106.258L11.8082 117.025C11.1769 117.34 10.4145 117.119 10.0453 116.521L6.95039 111.509C6.56774 110.903 6.71113 110.122 7.27538 109.698Z" fill="#6557FF"/>
</svg>
