<svg width="139" height="294" viewBox="0 0 139 294" fill="none"
	xmlns="http://www.w3.org/2000/svg">
	<circle cx="134" cy="5" r="5" fill="#5856D6" />
	<path opacity="0.3"
		d="M14 182H34.8814C41.5088 182 46.8814 176.627 46.8814 170V18C46.8814 11.3726 52.2539 6 58.8814 6H124"
		stroke="white" stroke-width="2" stroke-linecap="round"
		stroke-dasharray="3 7" />
	<path opacity="0.3"
		d="M1 182H79.4746C86.102 182 91.4746 176.627 91.4746 170V110C91.4746 103.373 96.8472 98 103.475 98L124 98"
		stroke="white" stroke-width="2" stroke-linecap="round"
		stroke-dasharray="3 7" />
	<path opacity="0.3"
		d="M124 193C124.552 193 125 193.448 125 194C125 194.552 124.552 195 124 195V194V193ZM86 194V195V194ZM74 182H75C75 182.438 75.0256 182.871 75.0753 183.295L74.0821 183.411L73.0889 183.528C73.0302 183.026 73 182.516 73 182H74ZM76.5758 189.429L77.3607 188.81C77.8967 189.489 78.5112 190.103 79.1903 190.639L78.5706 191.424L77.951 192.209C77.1492 191.576 76.4238 190.851 75.7908 190.049L76.5758 189.429ZM84.5887 193.918L84.705 192.925C85.1294 192.974 85.5615 193 86 193V194V195C85.4836 195 84.9738 194.97 84.4723 194.911L84.5887 193.918ZM86 194V193H87.425V194V195H86V194ZM94.075 194V193H96.925V194V195H94.075V194ZM103.575 194V193H106.425V194V195H103.575V194ZM113.075 194V193H115.925V194V195H113.075V194ZM122.575 194V193H124V194V195H122.575V194Z"
		fill="white" />
	<path opacity="0.3"
		d="M49 182H56.6023C63.2297 182 68.6023 187.373 68.6023 194V276C68.6023 282.627 73.9749 288 80.6023 288H124"
		stroke="white" stroke-width="2" stroke-linecap="round"
		stroke-dasharray="3 7" />
	<circle cx="134" cy="99" r="5" fill="#5856D6" />
	<circle cx="134" cy="194" r="5" fill="#5856D6" />
	<circle cx="134" cy="289" r="5" fill="#5856D6" />
</svg>