<svg width="17" height="16" viewBox="0 0 17 16" fill="none"
	xmlns="http://www.w3.org/2000/svg">
	<path
		d="M8.20414 0.454139C8.64348 0.0147988 9.3566 0.0147988 9.79594 0.454139L16.5459 7.20414C16.9853 7.64348 16.9853 8.3566 16.5459 8.79594L9.79594 15.5459C9.3566 15.9853 8.64348 15.9853 8.20414 15.5459C7.7648 15.1066 7.7648 14.3935 8.20414 13.9541L14.1582 8.00004L8.20414 2.04594C7.7648 1.6066 7.7648 0.893479 8.20414 0.454139Z"
		fill="#0B0B2E" />
	<path
		d="M15.6875 6.875C16.3088 6.875 16.8125 7.37868 16.8125 8C16.8125 8.62132 16.3088 9.125 15.6875 9.125H2C1.37868 9.125 0.875 8.62132 0.875 8C0.875 7.37868 1.37868 6.875 2 6.875H15.6875Z"
		fill="#0B0B2E" />
</svg>