<svg width="245" height="134" viewBox="0 0 245 134" fill="none" xmlns="http://www.w3.org/2000/svg">
<path d="M124.69 108.543C154.895 108.543 179.381 84.2448 179.381 54.2714C179.381 24.298 154.895 -0.000244141 124.69 -0.000244141C94.4856 -0.000244141 69.9998 24.298 69.9998 54.2714C69.9998 84.2448 94.4856 108.543 124.69 108.543Z" fill="#6557FF"/>
<path d="M92.8477 57.1111L123.86 25.6418C124.676 24.8168 125.605 24.2044 126.6 23.7953C128.092 23.1806 129.737 23.0257 131.304 23.3331C132.873 23.6428 134.356 24.4031 135.577 25.6418C136.39 26.4692 136.993 27.4121 137.397 28.422C138.002 29.9357 138.155 31.6043 137.852 33.1943C137.547 34.7866 136.798 36.2911 135.577 37.5298L113.128 60.3073C112.06 61.3912 112.06 63.1452 113.128 64.2291C114.196 65.313 115.925 65.313 116.993 64.2291L139.442 41.4516C140.779 40.095 141.79 38.5166 142.462 36.8342C143.471 34.3105 143.719 31.5604 143.218 28.9235C142.717 26.2866 141.451 23.756 139.442 21.72C138.105 20.3634 136.549 19.3373 134.891 18.6556C132.404 17.6341 129.694 17.3799 127.095 17.8883C124.496 18.3967 122.002 19.6817 119.995 21.72L88.9802 53.1893C87.912 54.2732 87.912 56.0273 88.9802 57.1111C90.0485 58.195 91.7772 58.195 92.8454 57.1111H92.8477Z" fill="white"/>
<path d="M126.013 55.0852L139.442 41.4594C140.258 40.6343 141.187 40.0219 142.182 39.6128C143.674 38.9981 145.319 38.8433 146.886 39.1506C148.455 39.4603 149.938 40.2206 151.159 41.4594C151.972 42.2867 152.575 43.2296 152.979 44.2395C153.584 45.7533 153.737 47.4218 153.434 49.0118C153.129 50.6041 152.38 52.1086 151.159 53.3473L124.109 80.7931C123.526 81.3847 123.08 82.078 122.786 82.8176C122.344 83.9245 122.235 85.1263 122.456 86.2818C122.674 87.435 123.234 88.5512 124.109 89.4387L129.967 95.3826C131.035 96.4665 132.764 96.4665 133.832 95.3826C134.901 94.2988 134.901 92.5447 133.832 91.4608L127.974 85.5168C127.915 85.4568 127.879 85.3967 127.851 85.3297C127.81 85.2303 127.799 85.1124 127.822 85.0038C127.844 84.8929 127.888 84.805 127.974 84.7149L155.024 57.2691C156.361 55.9125 157.372 54.3341 158.044 52.6517C159.053 50.128 159.301 47.3779 158.8 44.741C158.299 42.1041 157.033 39.5736 155.024 37.5375C153.687 36.181 152.131 35.1549 150.473 34.4731C147.986 33.4493 145.275 33.1974 142.677 33.7058C140.078 34.2143 137.584 35.4992 135.577 37.5375L122.148 51.1634C121.08 52.2472 121.08 54.0013 122.148 55.0852C123.216 56.1691 124.945 56.1691 126.013 55.0852Z" fill="white"/>
<path d="M143.731 44.5139L120.599 67.9847C119.783 68.8098 118.854 69.4222 117.859 69.8312C116.367 70.446 114.722 70.6008 113.155 70.2934C111.586 69.9838 110.103 69.2234 108.882 67.9847C108.069 67.1574 107.466 66.2145 107.062 65.2045C106.457 63.6908 106.304 62.0223 106.607 60.4323C106.912 58.84 107.661 57.3355 108.882 56.0968L131.331 33.3193C132.399 32.2354 132.399 30.4813 131.331 29.3974C130.263 28.3136 128.534 28.3136 127.466 29.3974L105.017 52.175C103.68 53.5315 102.669 55.11 101.997 56.7924C100.988 59.316 100.74 62.0662 101.241 64.7031C101.742 67.3399 103.008 69.8705 105.017 71.9065C106.354 73.2631 107.91 74.2892 109.568 74.971C112.055 75.9947 114.765 76.2467 117.364 75.7382C119.963 75.2298 122.457 73.9449 124.464 71.9065L147.596 48.4357C148.664 47.3518 148.664 45.5978 147.596 44.5139C146.528 43.43 144.799 43.43 143.731 44.5139Z" fill="white"/>
<path fill-rule="evenodd" clip-rule="evenodd" d="M1.22865 49.8588L25.3655 47.6091C26.0682 47.5452 26.6004 46.9562 26.6004 46.2536L26.6004 39.3695C26.6004 38.2552 27.8566 37.6094 28.7579 38.2623L49.4031 53.0525C50.1625 53.599 50.1625 54.7274 49.4031 55.2738L28.765 70.0711C27.8637 70.7169 26.6075 70.0711 26.6075 68.964L26.6075 62.0799C26.6075 61.3773 26.0682 60.7882 25.3726 60.7243L1.23575 58.4746C0.533142 58.4107 0.000869509 57.8217 0.000869478 57.1191L0.000869221 51.2286C-0.00622781 50.5118 0.526046 49.9227 1.22865 49.8588Z" fill="#6557FF"/>
<path fill-rule="evenodd" clip-rule="evenodd" d="M196.298 91.8814L218.327 102.002C218.967 102.298 219.722 102.054 220.074 101.445L223.516 95.4833C224.073 94.5183 225.484 94.5871 225.938 95.6032L236.422 118.734C236.806 119.587 236.242 120.565 235.311 120.658L210.04 123.154C208.936 123.263 208.171 122.075 208.725 121.116L212.167 115.155C212.518 114.546 212.345 113.766 211.775 113.363L191.997 99.3464C191.42 98.9398 191.254 98.1636 191.605 97.5551L194.55 92.4538C194.903 91.8294 195.658 91.5854 196.298 91.8814Z" fill="#6557FF"/>
</svg>
