<svg width="72" height="72" viewBox="0 0 72 72" fill="none"
	xmlns="http://www.w3.org/2000/svg">
	<g filter="url(#filter0_i_1_1211)">
		<path
			d="M67.1676 5.38044C67.142 5.25607 67.0814 5.1416 66.9929 5.05044C66.9045 4.95928 66.792 4.89521 66.6684 4.86575C58.432 2.852 39.4012 10.0281 29.0906 20.3345C27.2516 22.1586 25.5751 24.1396 24.0801 26.2548C20.9006 25.9736 17.7211 26.2084 15.0112 27.3897C7.36546 30.7548 5.13936 39.5354 4.51921 43.3126C4.48403 43.5194 4.4973 43.7315 4.55797 43.9322C4.61864 44.1329 4.72505 44.3169 4.86885 44.4695C5.01264 44.6222 5.18989 44.7394 5.38665 44.8119C5.58342 44.8845 5.79433 44.9104 6.0028 44.8876L18.2808 43.5334C18.2895 44.4591 18.3454 45.3837 18.4481 46.3037C18.5099 46.9426 18.7935 47.5397 19.2497 47.9912L24.0042 52.7345C24.4562 53.1901 25.053 53.4736 25.6917 53.5361C26.6066 53.6384 27.526 53.6943 28.4466 53.7034L27.0994 65.9659C27.0769 66.1743 27.103 66.3851 27.1757 66.5817C27.2483 66.7783 27.3655 66.9555 27.5181 67.0992C27.6707 67.2429 27.8545 67.3493 28.0551 67.4101C28.2557 67.4709 28.4677 67.4844 28.6744 67.4495C32.4445 66.8448 41.2406 64.6187 44.5861 56.9729C45.7673 54.2631 46.0092 51.099 45.7364 47.935C47.8568 46.4399 49.8429 44.7629 51.6722 42.9231C62.0151 32.6322 69.1505 14.0261 67.1676 5.38044ZM41.3531 30.6465C40.4087 29.7027 39.7654 28.5 39.5045 27.1905C39.2437 25.881 39.3772 24.5236 39.8879 23.2899C40.3987 22.0562 41.2638 21.0018 42.374 20.2599C43.4841 19.518 44.7893 19.122 46.1245 19.122C47.4597 19.122 48.765 19.518 49.8751 20.2599C50.9852 21.0018 51.8504 22.0562 52.3611 23.2899C52.8719 24.5236 53.0053 25.881 52.7445 27.1905C52.4837 28.5 51.8404 29.7027 50.8959 30.6465C50.2697 31.2737 49.5259 31.7712 48.7072 32.1107C47.8884 32.4502 47.0108 32.6249 46.1245 32.6249C45.2382 32.6249 44.3606 32.4502 43.5419 32.1107C42.7231 31.7712 41.9794 31.2737 41.3531 30.6465Z"
			fill="#0B0B2E" />
		<path
			d="M23.6812 56.1698C22.9106 56.9419 21.6745 57.2428 20.1867 57.5002C16.8441 58.0697 13.8923 55.1813 14.4928 51.802C14.722 50.5209 15.3998 48.7252 15.8217 48.3033C15.9139 48.2129 15.9753 48.0957 15.9971 47.9684C16.019 47.8411 16.0001 47.7101 15.9433 47.5942C15.8865 47.4782 15.7946 47.383 15.6806 47.3223C15.5666 47.2615 15.4364 47.2382 15.3084 47.2556C13.4392 47.4843 11.7002 48.3318 10.3683 49.6631C7.06219 52.972 6.75 65.25 6.75 65.25C6.75 65.25 19.035 64.9378 22.3411 61.6289C23.6766 60.2981 24.5251 58.5564 24.75 56.6845C24.802 56.0967 24.0862 55.7466 23.6812 56.1698Z"
			fill="#0B0B2E" />
	</g>
	<defs>
		<filter id="filter0_i_1_1211" x="0" y="0" width="72" height="72"
			filterUnits="userSpaceOnUse" color-interpolation-filters="sRGB">
			<feFlood flood-opacity="0" result="BackgroundImageFix" />
			<feBlend mode="normal" in="SourceGraphic" in2="BackgroundImageFix"
				result="shape" />
			<feColorMatrix in="SourceAlpha" type="matrix"
				values="0 0 0 0 0 0 0 0 0 0 0 0 0 0 0 0 0 0 127 0" result="hardAlpha" />
			<feOffset dx="1" dy="1" />
			<feComposite in2="hardAlpha" operator="arithmetic" k2="-1" k3="1" />
			<feColorMatrix type="matrix"
				values="0 0 0 0 1 0 0 0 0 1 0 0 0 0 1 0 0 0 0.5 0" />
			<feBlend mode="normal" in2="shape" result="effect1_innerShadow_1_1211" />
		</filter>
	</defs>
</svg>