<svg width="183" height="48" viewBox="0 0 183 48" fill="none"
	xmlns="http://www.w3.org/2000/svg">
	<rect width="48" height="48" rx="24" fill="#6557FF" />
	<circle cx="14.5934" cy="21.6264" r="3.86813" fill="white" />
	<circle cx="3.86813" cy="3.86813" r="3.86813"
		transform="matrix(1 0 0 -1 29.5385 28.6593)" fill="white" />
	<ellipse cx="14.5934" cy="21.2747" rx="0.879121" ry="0.87912" fill="#6557FF" />
	<ellipse cx="0.87912" cy="0.879121" rx="0.87912" ry="0.879121"
		transform="matrix(1 0 0 -1 32.5275 26.022)" fill="#6557FF" />
	<rect x="13.1868" y="21.2747" width="2.81319" height="5.27473" fill="#6557FF" />
	<rect width="2.81319" height="5.27473" transform="matrix(1 0 0 -1 32 25.1429)"
		fill="#6557FF" />
	<rect x="10.7253" y="21.2747" width="2.98901" height="3.51648" fill="white" />
	<rect width="2.98901" height="3.51648"
		transform="matrix(1 0 0 -1 29.5385 25.1429)" fill="white" />
	<rect x="15.4725" y="21.2747" width="2.98901" height="3.69231" fill="white" />
	<rect width="2.98901" height="3.69231"
		transform="matrix(1 0 0 -1 34.2857 25.1429)" fill="white" />
	<rect x="20.044" y="14.7692" width="3.16484" height="10.3736" fill="white" />
	<rect width="3.16483" height="4.21978"
		transform="matrix(1 0 0 -1 38.8571 25.4945)" fill="white" />
	<circle cx="19.3407" cy="24.7912" r="3.86813" fill="white" />
	<ellipse cx="3.86813" cy="3.86813" rx="3.86813" ry="3.86813"
		transform="matrix(1 0 0 -1 34.2857 25.4945)" fill="white" />
	<ellipse cx="19.1648" cy="25.6703" rx="0.87912" ry="0.879121"
		transform="rotate(180 19.1648 25.6703)" fill="#6557FF" />
	<ellipse cx="0.879122" cy="0.879121" rx="0.879122" ry="0.879121"
		transform="matrix(-1 -8.74227e-08 -8.74229e-08 1 38.8571 19.8681)"
		fill="#6557FF" />
	<rect x="20.044" y="25.8462" width="1.75824" height="5.45055"
		transform="rotate(180 20.044 25.8462)" fill="#6557FF" />
	<rect width="1.75824" height="5.45055"
		transform="matrix(-1 -8.74227e-08 -8.74229e-08 1 38.8571 20.5714)"
		fill="#6557FF" />
	<rect width="3.16483" height="4.39561"
		transform="matrix(-1 0 0 1 9.14286 20.7473)" fill="white" />
	<rect x="27.956" y="33.0549" width="3.16484" height="11.7802"
		transform="rotate(180 27.956 33.0549)" fill="white" />
	<ellipse cx="3.86813" cy="3.86813" rx="3.86813" ry="3.86813"
		transform="matrix(-1 0 0 1 13.7143 20.9231)" fill="white" />
	<circle cx="28.6593" cy="21.6264" r="3.86813"
		transform="rotate(180 28.6593 21.6264)" fill="white" />
	<ellipse cx="0.879121" cy="0.879121" rx="0.879121" ry="0.879121"
		transform="matrix(1 8.74228e-08 8.74227e-08 -1 9.14286 26.5495)"
		fill="#6557FF" />
	<ellipse cx="28.8352" cy="20.7473" rx="0.87912" ry="0.879121" fill="#6557FF" />
	<rect width="1.75824" height="5.45055"
		transform="matrix(1 8.74228e-08 8.74228e-08 -1 9.14286 25.8462)"
		fill="#6557FF" />
	<rect x="27.956" y="20.5714" width="1.75824" height="5.45055" fill="#6557FF" />
	<ellipse cx="21.6264" cy="14.7692" rx="1.58242" ry="1.58242" fill="white" />
	<ellipse cx="26.3736" cy="33.055" rx="1.58242" ry="1.58242" fill="white" />
	<circle cx="40.4396" cy="25.4945" r="1.58242" fill="white" />
	<ellipse cx="7.56044" cy="21.0989" rx="1.58242" ry="1.58242" fill="white" />
	<path
		d="M61.6101 34.7744C61.2443 34.7744 60.9699 34.7195 60.7869 34.6098C60.6223 34.5183 60.5125 34.3811 60.4577 34.1982C60.4028 33.9969 60.3753 33.7683 60.3753 33.5122V16.8562C60.3753 16.3806 60.4668 16.0605 60.6497 15.8958C60.851 15.7129 61.1985 15.6214 61.6924 15.6214H72.7232C72.9793 15.6214 73.1897 15.6489 73.3544 15.7038C73.5373 15.7586 73.6745 15.8775 73.766 16.0605C73.8574 16.2434 73.9031 16.5178 73.9031 16.8837C73.9031 17.2495 73.8483 17.5239 73.7385 17.7069C73.647 17.8715 73.5098 17.9813 73.3269 18.0361C73.144 18.091 72.9245 18.1185 72.6684 18.1185H62.8449V23.7985H69.6774C69.9335 23.7985 70.1439 23.8259 70.3085 23.8808C70.4915 23.9357 70.6287 24.0454 70.7201 24.2101C70.8116 24.3747 70.8573 24.6308 70.8573 24.9784C70.8573 25.3077 70.8116 25.5546 70.7201 25.7193C70.6287 25.8839 70.4915 25.9937 70.3085 26.0485C70.1439 26.0851 69.9244 26.1034 69.65 26.1034H62.8449V33.5396C62.8449 33.7957 62.8175 34.0152 62.7626 34.1982C62.7077 34.3811 62.5888 34.5183 62.4059 34.6098C62.2412 34.7195 61.976 34.7744 61.6101 34.7744ZM81.5001 34.7744C80.9147 34.7744 80.3842 34.7195 79.9086 34.6098C79.4513 34.5183 79.0488 34.3628 78.7013 34.1433C78.3537 33.9238 78.061 33.6402 77.8232 33.2926C77.6037 32.9451 77.439 32.5243 77.3293 32.0304C77.2378 31.5365 77.1921 30.9603 77.1921 30.3017V16.5818C77.1921 16.3074 77.2104 16.0788 77.2469 15.8958C77.3018 15.7129 77.4207 15.5757 77.6037 15.4842C77.7866 15.3745 78.0427 15.3196 78.372 15.3196C78.7378 15.3196 79.0031 15.3653 79.1677 15.4568C79.3507 15.5483 79.4696 15.6855 79.5244 15.8684C79.5793 16.0513 79.6068 16.2708 79.6068 16.5269V30.2743C79.6068 30.6401 79.6434 30.9603 79.7165 31.2347C79.7897 31.4908 79.8995 31.7103 80.0458 31.8932C80.2104 32.0762 80.4117 32.2042 80.6495 32.2774C80.8873 32.3506 81.1708 32.3871 81.5001 32.3871C81.7196 32.3871 81.9026 32.4146 82.0489 32.4695C82.2135 32.5243 82.3416 32.6341 82.4331 32.7987C82.5245 32.9634 82.5703 33.2195 82.5703 33.567C82.5703 33.9329 82.5245 34.2073 82.4331 34.3902C82.3416 34.5549 82.2135 34.6555 82.0489 34.6921C81.9026 34.747 81.7196 34.7744 81.5001 34.7744ZM91.056 34.939C90.1596 34.939 89.2999 34.7653 88.4767 34.4177C87.6718 34.0701 86.9492 33.5945 86.3089 32.9908C85.6687 32.3688 85.1656 31.6463 84.7997 30.8231C84.4339 29.9999 84.2509 29.1035 84.2509 28.134C84.2509 27.1827 84.4247 26.3047 84.7723 25.4998C85.1199 24.6766 85.6046 23.954 86.2266 23.332C86.8486 22.71 87.562 22.2253 88.3669 21.8777C89.1901 21.5118 90.0682 21.3289 91.0011 21.3289C92.2634 21.3289 93.3975 21.6307 94.4037 22.2344C95.4281 22.8198 96.2421 23.6247 96.8458 24.6491C97.4495 25.6735 97.7513 26.826 97.7513 28.1065C97.7513 29.1127 97.5684 30.0365 97.2025 30.8779C96.8367 31.7011 96.3427 32.4146 95.7208 33.0183C95.0988 33.6219 94.3854 34.0975 93.5805 34.4451C92.7756 34.7744 91.9341 34.939 91.056 34.939ZM91.0011 32.5518C91.7694 32.5518 92.4829 32.3597 93.1414 31.9755C93.8 31.5914 94.3305 31.0609 94.7329 30.384C95.1354 29.7072 95.3366 28.9389 95.3366 28.0791C95.3366 27.2193 95.1445 26.4601 94.7604 25.8016C94.3945 25.143 93.8823 24.6308 93.2238 24.265C92.5652 23.8991 91.8152 23.7162 90.9737 23.7162C90.1688 23.7162 89.4371 23.9082 88.7785 24.2924C88.1382 24.6766 87.6169 25.1979 87.2144 25.8565C86.8303 26.515 86.6382 27.265 86.6382 28.1065C86.6382 28.9846 86.8394 29.7621 87.2419 30.4389C87.6443 31.0975 88.1748 31.6188 88.8334 32.003C89.5102 32.3688 90.2328 32.5518 91.0011 32.5518ZM104.475 34.6921C104.201 34.6921 103.981 34.6463 103.817 34.5549C103.67 34.4817 103.551 34.3811 103.46 34.253C103.387 34.1067 103.332 33.9512 103.295 33.7866L99.0421 22.9753C98.9506 22.7009 98.9049 22.4722 98.9049 22.2893C98.9232 22.1064 98.9963 21.9509 99.1244 21.8228C99.2707 21.6948 99.4811 21.585 99.7555 21.4935C100.195 21.3289 100.533 21.2923 100.771 21.3838C101.009 21.457 101.201 21.6948 101.347 22.0972L104.475 30.4389L107.384 22.2893C107.439 22.143 107.503 22.0058 107.576 21.8777C107.667 21.7314 107.795 21.6125 107.96 21.521C108.125 21.4295 108.335 21.3838 108.591 21.3838C108.884 21.3838 109.103 21.4295 109.25 21.521C109.414 21.6125 109.542 21.7222 109.634 21.8503C109.744 21.9783 109.817 22.1155 109.853 22.2619L112.735 30.4938L115.863 22.2344C116.027 21.7954 116.229 21.5118 116.466 21.3838C116.722 21.2557 117.07 21.274 117.509 21.4387C117.893 21.5667 118.149 21.7497 118.277 21.9875C118.405 22.2253 118.378 22.5637 118.195 23.0027L113.942 33.814C113.887 33.9604 113.814 34.1067 113.722 34.253C113.649 34.3811 113.53 34.4817 113.366 34.5549C113.219 34.6463 113.018 34.6921 112.762 34.6921C112.506 34.6921 112.305 34.6555 112.158 34.5823C112.012 34.5091 111.893 34.3994 111.802 34.253C111.71 34.0884 111.628 33.9146 111.555 33.7317L108.619 25.2802L105.655 33.7317C105.582 33.9512 105.5 34.1341 105.408 34.2805C105.335 34.4268 105.225 34.5274 105.079 34.5823C104.932 34.6555 104.731 34.6921 104.475 34.6921ZM122.193 34.7744C121.864 34.7744 121.607 34.7195 121.425 34.6098C121.26 34.5 121.141 34.3537 121.068 34.1707C120.995 33.9695 120.958 33.75 120.958 33.5122V16.8288C120.958 16.591 120.995 16.3897 121.068 16.2251C121.141 16.0422 121.269 15.8958 121.452 15.7861C121.635 15.6763 121.9 15.6214 122.248 15.6214C122.522 15.6214 122.742 15.6397 122.906 15.6763C123.071 15.7129 123.199 15.7678 123.29 15.841C123.4 15.8958 123.51 15.9873 123.62 16.1153L130.782 26.4876H129.931L137.175 16.033C137.285 15.905 137.395 15.8135 137.504 15.7586C137.614 15.7038 137.751 15.6672 137.916 15.6489C138.099 15.6306 138.309 15.6214 138.547 15.6214C138.895 15.6214 139.151 15.6763 139.315 15.7861C139.498 15.8958 139.626 16.0513 139.699 16.2525C139.773 16.4355 139.809 16.6459 139.809 16.8837V33.567C139.809 33.7866 139.773 33.9878 139.699 34.1707C139.626 34.3537 139.498 34.5 139.315 34.6098C139.132 34.7195 138.867 34.7744 138.52 34.7744C138.19 34.7744 137.934 34.7195 137.751 34.6098C137.587 34.5 137.468 34.3537 137.395 34.1707C137.34 33.9695 137.312 33.75 137.312 33.5122V19.7374L131.44 28.3809C131.385 28.4724 131.312 28.5639 131.221 28.6553C131.129 28.7285 131.01 28.7925 130.864 28.8474C130.736 28.9023 130.571 28.9297 130.37 28.9297C130.15 28.9297 129.977 28.9023 129.849 28.8474C129.739 28.7925 129.638 28.7285 129.547 28.6553C129.455 28.5639 129.364 28.4632 129.272 28.3535L123.428 19.7648V33.567C123.428 33.7866 123.391 33.9878 123.318 34.1707C123.263 34.3537 123.144 34.5 122.961 34.6098C122.797 34.7195 122.54 34.7744 122.193 34.7744ZM154.34 34.747C153.937 34.747 153.645 34.6646 153.462 34.5C153.297 34.3354 153.197 34.0793 153.16 33.7317L153.27 32.3597C153.087 32.6524 152.803 32.9908 152.419 33.375C152.035 33.7408 151.532 34.0701 150.91 34.3628C150.288 34.6372 149.529 34.7744 148.632 34.7744C147.754 34.7744 146.931 34.6006 146.163 34.253C145.413 33.9055 144.745 33.4207 144.16 32.7987C143.593 32.1768 143.144 31.4633 142.815 30.6584C142.504 29.8535 142.349 28.9938 142.349 28.0791C142.349 27.1827 142.504 26.3412 142.815 25.5546C143.144 24.7497 143.602 24.0454 144.187 23.4418C144.773 22.8381 145.44 22.3625 146.19 22.0149C146.959 21.6673 147.773 21.4935 148.632 21.4935C149.437 21.4935 150.123 21.6033 150.69 21.8228C151.257 22.024 151.742 22.2984 152.145 22.646C152.565 22.9753 152.931 23.3503 153.242 23.771L153.187 22.6186C153.169 22.2161 153.251 21.9326 153.434 21.7679C153.636 21.585 153.947 21.4935 154.367 21.4935C154.715 21.4935 154.962 21.5484 155.108 21.6582C155.273 21.7679 155.383 21.9234 155.437 22.1247C155.492 22.3259 155.52 22.5728 155.52 22.8655V33.4573C155.52 33.7134 155.492 33.9421 155.437 34.1433C155.383 34.3445 155.273 34.4909 155.108 34.5823C154.944 34.6921 154.687 34.747 154.34 34.747ZM149.044 32.4695C149.776 32.4695 150.443 32.2774 151.047 31.8932C151.669 31.5091 152.154 30.9969 152.501 30.3566C152.867 29.698 153.05 28.948 153.05 28.1065C153.05 27.2468 152.858 26.4967 152.474 25.8565C152.108 25.1979 151.614 24.6857 150.992 24.3198C150.389 23.9357 149.721 23.7436 148.989 23.7436C148.129 23.7436 147.379 23.9448 146.739 24.3473C146.117 24.7314 145.623 25.2528 145.257 25.9113C144.891 26.5699 144.708 27.3199 144.708 28.1614C144.708 28.9846 144.891 29.7255 145.257 30.384C145.623 31.0243 146.126 31.5365 146.766 31.9207C147.425 32.2865 148.184 32.4695 149.044 32.4695ZM165.047 34.7744C164.188 34.7744 163.456 34.6921 162.852 34.5274C162.267 34.3628 161.782 34.1067 161.398 33.7591C161.014 33.4116 160.739 32.9634 160.575 32.4146C160.41 31.8475 160.328 31.1523 160.328 30.3292V18.2008C160.328 17.9447 160.355 17.7251 160.41 17.5422C160.465 17.3593 160.575 17.2221 160.739 17.1306C160.904 17.0209 161.16 16.966 161.508 16.966C161.855 16.966 162.12 17.0209 162.303 17.1306C162.486 17.2221 162.605 17.3593 162.66 17.5422C162.715 17.7069 162.742 17.9172 162.742 18.1733V30.3292C162.742 30.8048 162.779 31.1889 162.852 31.4816C162.944 31.756 163.072 31.9664 163.236 32.1127C163.419 32.2591 163.657 32.3506 163.95 32.3871C164.242 32.4237 164.599 32.442 165.02 32.442C165.313 32.442 165.55 32.4695 165.733 32.5243C165.916 32.5792 166.053 32.689 166.145 32.8536C166.236 33.0183 166.282 33.2652 166.282 33.5945C166.282 33.9421 166.227 34.2073 166.118 34.3902C166.026 34.5549 165.88 34.6555 165.678 34.6921C165.496 34.747 165.285 34.7744 165.047 34.7744ZM158.901 21.7954L161.535 21.8228L165.349 21.7679C165.605 21.7679 165.825 21.7954 166.008 21.8503C166.191 21.8868 166.328 21.9966 166.419 22.1795C166.529 22.3442 166.584 22.6003 166.584 22.9479C166.584 23.2954 166.538 23.5607 166.447 23.7436C166.355 23.9082 166.218 24.018 166.035 24.0729C165.852 24.1278 165.633 24.1552 165.377 24.1552L161.617 24.1003L158.846 24.1278C158.462 24.1278 158.197 24.0363 158.05 23.8534C157.922 23.6704 157.858 23.3686 157.858 22.9479C157.858 22.5454 157.94 22.2527 158.105 22.0698C158.27 21.8868 158.535 21.7954 158.901 21.7954ZM175.364 34.9116C174.266 34.9116 173.288 34.7287 172.428 34.3628C171.568 33.9969 170.837 33.503 170.233 32.8811C169.647 32.2408 169.199 31.5091 168.888 30.6859C168.577 29.8627 168.422 28.9755 168.422 28.0242C168.422 26.762 168.715 25.637 169.3 24.6491C169.885 23.6613 170.69 22.8838 171.715 22.3167C172.757 21.7314 173.946 21.4387 175.282 21.4387C176.196 21.4387 177.01 21.585 177.724 21.8777C178.456 22.1521 179.078 22.5271 179.59 23.0027C180.102 23.4784 180.495 24.0089 180.77 24.5942C181.044 25.1796 181.181 25.765 181.181 26.3504C181.181 27.2833 180.962 27.9419 180.523 28.3261C180.084 28.6919 179.544 28.8748 178.904 28.8748H170.974C170.955 29.6797 171.166 30.3749 171.605 30.9603C172.062 31.5274 172.629 31.9664 173.306 32.2774C174.001 32.5884 174.696 32.7439 175.392 32.7439C175.904 32.7439 176.343 32.7164 176.709 32.6615C177.074 32.6067 177.395 32.5335 177.669 32.442C177.943 32.3506 178.181 32.2591 178.382 32.1676C178.584 32.0762 178.757 31.9847 178.904 31.8932C179.068 31.8018 179.224 31.7377 179.37 31.7011C179.535 31.6646 179.69 31.6828 179.837 31.756C180.001 31.8109 180.129 31.9298 180.221 32.1127C180.331 32.2591 180.404 32.3963 180.44 32.5243C180.477 32.6524 180.495 32.7896 180.495 32.9359C180.495 33.192 180.276 33.4756 179.837 33.7866C179.398 34.0975 178.785 34.3628 177.998 34.5823C177.23 34.8018 176.352 34.9116 175.364 34.9116ZM170.974 27.2559H177.861C178.209 27.2559 178.465 27.2102 178.629 27.1187C178.812 27.0272 178.904 26.7803 178.904 26.3778C178.904 25.8656 178.748 25.4083 178.437 25.0058C178.126 24.5851 177.696 24.2467 177.148 23.9906C176.617 23.7345 176.004 23.6064 175.309 23.6064C174.504 23.6064 173.763 23.771 173.087 24.1003C172.428 24.4113 171.907 24.8412 171.523 25.39C171.138 25.9388 170.955 26.5608 170.974 27.2559Z"
		fill="#0B0B2E" />
</svg>